<svg viewBox="0 0 100 100" xmlns="http://www.w3.org/2000/svg" xmlns:xlink="http://www.w3.org/1999/xlink"><defs><path d="M65.516 56.734L51.514 70.231c-.774.807-1.827 1.21-2.987 1.21-1.16 0-2.2-.403-2.987-1.21L31.484 56.734a4.004 4.004 0 0 1 0-5.813c1.667-1.6 4.36-1.6 6.028 0l6.72 6.486v-24.2c0-2.274 1.908-4.117 4.268-4.117s4.267 1.843 4.267 4.117v24.2l6.721-6.486c1.667-1.6 4.36-1.6 6.028 0 1.667 1.602 1.667 4.199 0 5.813z" id="a"/></defs><g fill="none" fill-rule="evenodd"><circle stroke="#0D78F2" stroke-width="5" fill="#FFF" cx="50" cy="50" r="45"/><g opacity=".4" stroke="#0D78F2" stroke-width="4"><path d="M51.5 5.592C61.877 20.396 67.066 35.2 67.066 50.004c0 14.804-5.189 29.608-15.566 44.412M46.71 5.592C36.334 20.396 31.146 35.2 31.146 50.004c0 14.804 5.188 29.608 15.566 44.412"/><path d="M6.599 37.566h86.21M6.599 62.434h86.21" stroke-linecap="square"/></g><g fill-rule="nonzero" transform="rotate(-90 48.5 50.266)"><use fill="#0D78F2" fill-rule="evenodd" xlink:href="#a"/><path stroke="#FFF" stroke-width="3" d="M42.733 53.875V33.207c0-3.115 2.591-5.617 5.767-5.617s5.767 2.502 5.767 5.617v20.668l4.182-4.035c2.247-2.16 5.858-2.16 8.106 0 2.28 2.19 2.28 5.767.004 7.972l-.002.002-13.96 13.455c-1.052 1.098-2.491 1.673-4.07 1.673-1.572 0-2.996-.571-4.026-1.63L30.445 57.817a5.504 5.504 0 0 1 0-7.976c2.248-2.16 5.859-2.16 8.108.002l4.18 4.033z"/></g></g></svg>